<svg width="129" height="20" viewBox="0 0 129 20" fill="none" xmlns="http://www.w3.org/2000/svg">
<path d="M83.0656 8.7757L80.9194 8.07231L83.3427 0.771506C83.4952 0.311383 83.9275 0 84.4157 0H87.8085V2.2464H85.2328L83.0656 8.7757Z" fill="#EB5757"/>
<path d="M10.6177 8.90632V16.7284L8.11889 19.2111H0V6.42499H8.11889L10.6177 8.90632ZM8.38332 9.71535L7.07797 8.41839H2.23294V17.2191H7.07797L8.38332 15.9221V9.71535Z" fill="#F2F2F2"/>
<path d="M22.3891 19.2111L19.5882 14.2095H16.0303V19.2111H13.7974V6.42499H22.2003L24.2639 8.47399V12.1411L22.2003 14.2095H22.0492L24.8879 19.2111H22.3891ZM16.0289 12.2161H21.158L22.0282 11.3515V9.26357L21.158 8.417H16.0289V12.2161Z" fill="#F2F2F2"/>
<path d="M31.5494 8.41839V17.2191H33.9152V19.2125H26.9688V17.2191H29.315V8.41839H26.9688V6.42499H33.9152V8.41839H31.5494Z" fill="#F2F2F2"/>
<path d="M47.4855 6.42499V19.2125H45.6499L38.9693 9.99893V19.2125H36.8301V6.42499H38.8937L45.3477 15.3188V6.42499H47.4855Z" fill="#F2F2F2"/>
<path d="M58.879 19.2111L53.2393 13.1002V19.2111H51.0063V6.42499H53.2393V12.3482L58.7657 6.42499H61.4715L55.6807 12.6304L61.7751 19.2125H58.879V19.2111Z" fill="#F2F2F2"/>
<path d="M74.5481 14.3416V17.144L72.4663 19.2125H63.9683V6.42499H72.0872L74.169 8.49346V11.371L72.8637 12.6679L74.5481 14.3416ZM66.2026 11.7838H70.9721L71.9375 10.8441V9.28303L71.0476 8.41839H66.2026V11.7838ZM72.3152 16.3531V14.9991L71.0854 13.7578H66.2026V17.2177H71.4268L72.3152 16.3531Z" fill="#F2F2F2"/>
<path d="M101.652 8.90632V16.7284L99.1536 19.2111H91.0347V6.42499H99.1536L101.652 8.90632ZM99.418 9.71535L98.1126 8.41839H93.2676V17.2191H98.1126L99.418 15.9221V9.71535Z" fill="#F2F2F2"/>
<path d="M115.449 8.90632V16.7284L112.95 19.2111H104.831V6.42499H112.95L115.449 8.90632ZM113.216 9.71535L111.91 8.41839H107.065V17.2191H111.91L113.216 15.9221V9.71535Z" fill="#F2F2F2"/>
<path d="M129 6.42499L124.117 13.3449V19.2125H121.884V13.3449L117.02 6.42499H119.65L123.094 11.389L126.501 6.42499H129Z" fill="#F2F2F2"/>
<path d="M87.6834 6.42499V16.7298L85.1665 19.2125H79.829L77.312 16.7298V6.42499C78.546 6.42499 79.545 7.41891 79.545 8.64359V15.9208L80.8503 17.2177H84.1438L85.5442 15.8262V8.54906C85.5456 7.37582 86.5026 6.42499 87.6834 6.42499Z" fill="#F2F2F2"/>
</svg>